<?xml version="1.0" encoding="UTF-8"?>
<svg version="1.1" xmlns="http://www.w3.org/2000/svg" width="1000" height="173">
<path d="M0 0 C0.80192276 -0.06123047 1.60384552 -0.12246094 2.43006897 -0.18554688 C25.56417224 -1.6274489 25.56417224 -1.6274489 32.78955078 3.15625 C37.51886919 8.51849231 39.92193311 15.01442367 42.41552734 21.63623047 C44.74248985 27.32736445 47.87879763 32.49229059 51.01983643 37.76434326 C52.747002 40.68427788 54.41299775 43.63862935 56.0859375 46.58984375 C58.48361757 50.79289281 60.89963756 54.98393973 63.34375 59.16015625 C63.86235596 60.04727295 64.38096191 60.93438965 64.9152832 61.84838867 C65.86968696 63.47706673 66.82764754 65.10366771 67.78979492 66.7277832 C70.88671875 72.01481681 70.88671875 72.01481681 70.88671875 74.234375 C104.54671875 74.234375 138.20671875 74.234375 172.88671875 74.234375 C172.88671875 50.144375 172.88671875 26.054375 172.88671875 1.234375 C210.35062811 1.1134659 210.35062811 1.1134659 226.07421875 1.08789062 C236.9222439 1.07010382 247.77019904 1.04921669 258.61816406 1.00805664 C266.51939579 0.97809165 274.4205706 0.95878517 282.32185757 0.95210952 C286.50292136 0.94820926 290.68382237 0.93908595 294.86483383 0.91718483 C298.80629071 0.89670731 302.74751894 0.89056377 306.68902397 0.89505196 C308.12968758 0.89423176 309.57035945 0.88833346 311.01097679 0.87675858 C321.47426846 0.79686701 331.5456038 1.22025561 339.88671875 8.234375 C346.25716127 15.2479872 348.19349935 22.00373498 348.22265625 31.4765625 C348.22931305 32.24437042 348.23596985 33.01217834 348.24282837 33.80325317 C348.25289684 35.41845322 348.2576472 37.03369438 348.25732422 38.64892578 C348.26169502 41.09608712 348.29806677 43.54143833 348.3359375 45.98828125 C348.40506002 55.38498743 348.20496562 62.98124994 341.9921875 70.5390625 C337.09631082 74.54749921 332.48130962 78.234375 325.88671875 78.234375 C325.88671875 78.894375 325.88671875 79.554375 325.88671875 80.234375 C327.12421875 80.3271875 327.12421875 80.3271875 328.38671875 80.421875 C335.19473997 82.0023085 340.01300321 85.92244071 344.5625 91.09765625 C348.39032195 97.27411231 349.35363571 103.09294145 349.35546875 110.1953125 C349.36308228 111.02592194 349.3706958 111.85653137 349.37854004 112.71231079 C349.38927955 114.45856746 349.39221936 116.20488804 349.38769531 117.95117188 C349.3867236 120.59616216 349.42839974 123.23824021 349.47265625 125.8828125 C349.54811356 136.39289397 348.97127552 144.32028402 341.8515625 152.6015625 C332.64912741 159.44576278 322.11208255 162.3645891 310.69839478 162.35462952 C309.47850861 162.35600418 308.25862244 162.35737885 307.00177002 162.35879517 C305.6634519 162.35525678 304.32513403 162.35162198 302.98681641 162.34790039 C301.56723025 162.3476181 300.14764394 162.34777708 298.72805786 162.3483429 C294.88554763 162.34862922 291.04306877 162.34275913 287.20056581 162.33576894 C283.18069907 162.32950796 279.16083156 162.32892943 275.14096069 162.32774353 C267.53380382 162.32463831 259.92666135 162.31643582 252.31951082 162.30639404 C242.03640354 162.29311519 231.7532923 162.28772646 221.4701786 162.28189182 C205.2756812 162.27249539 189.0812142 162.25257106 172.88671875 162.234375 C172.88671875 135.174375 172.88671875 108.114375 172.88671875 80.234375 C167.0859375 81.7503125 161.28515625 83.26625 155.30859375 84.828125 C151.63555457 85.78569249 147.96244521 86.74297233 144.2890625 87.69921875 C138.45710823 89.21740871 132.62544548 90.7366622 126.79541016 92.26220703 C122.09569796 93.49190951 117.39477482 94.71687588 112.69297028 95.93855286 C110.89836839 96.40573776 109.10421123 96.87463442 107.31050873 97.34526062 C104.80028014 98.00357606 102.28854666 98.65581602 99.77636719 99.30664062 C99.03333847 99.50300613 98.29030975 99.69937164 97.52476501 99.90168762 C94.16014647 100.76701475 91.39068311 101.234375 87.88671875 101.234375 C95.73648615 115.86170393 103.91633174 130.2635078 112.32714844 144.57470703 C114.4901329 148.2634285 116.63360915 151.96294022 118.76171875 155.671875 C119.37789062 156.74308594 119.9940625 157.81429687 120.62890625 158.91796875 C121.88671875 161.234375 121.88671875 161.234375 121.88671875 162.234375 C107.36671875 162.234375 92.84671875 162.234375 77.88671875 162.234375 C70.57421875 148.484375 70.57421875 148.484375 68.34643555 144.29003906 C62.63017456 133.54768868 56.77145036 122.88520266 50.88671875 112.234375 C42.34389003 114.35471387 33.80248401 116.48074061 25.26171875 118.609375 C23.36274841 119.08241058 23.36274841 119.08241058 21.42541504 119.56500244 C3.5465507 124.02237712 -14.30266326 128.57159856 -32.08837891 133.38818359 C-32.81785736 133.58383911 -33.54733582 133.77949463 -34.29891968 133.9810791 C-36.22015176 134.49647455 -38.13992993 135.01728159 -40.05957031 135.53857422 C-43.11328125 136.234375 -43.11328125 136.234375 -47.11328125 136.234375 C-47.32726562 137.01039063 -47.54125 137.78640625 -47.76171875 138.5859375 C-49.599951 143.54810201 -52.15042291 148.00432196 -54.73828125 152.609375 C-56.51203125 155.785625 -58.28578125 158.961875 -60.11328125 162.234375 C-72.98328125 162.234375 -85.85328125 162.234375 -99.11328125 162.234375 C-95.04108133 154.08997516 -91.05384985 146.13274231 -86.48828125 138.296875 C-85.43824251 136.47688523 -84.38878359 134.65656084 -83.33984375 132.8359375 C-82.80649414 131.91200195 -82.27314453 130.98806641 -81.72363281 130.03613281 C-79.07624751 125.43009981 -76.47103327 120.80042392 -73.86328125 116.171875 C-68.66280015 106.95166036 -63.41447267 97.75931521 -58.15301514 88.57382202 C-53.3804416 80.23883781 -48.66293404 71.87476055 -43.98828125 63.484375 C-38.85979508 54.27956763 -33.58921318 45.16770225 -28.24633789 36.0859375 C-23.63410562 28.21174529 -19.23117354 20.23543516 -14.93115234 12.18676758 C-14.4717627 11.33107178 -14.01237305 10.47537598 -13.5390625 9.59375 C-13.14114502 8.84577148 -12.74322754 8.09779297 -12.33325195 7.32714844 C-11.72936646 6.29122559 -11.72936646 6.29122559 -11.11328125 5.234375 C-10.73558594 4.50992187 -10.35789062 3.78546875 -9.96875 3.0390625 C-7.1014299 0.25021642 -3.81665574 0.2758626 0 0 Z M210.88671875 28.234375 C210.88671875 40.444375 210.88671875 52.654375 210.88671875 65.234375 C222.6307472 65.27959652 234.37471763 65.31627437 246.11881351 65.33799934 C251.57232465 65.3484273 257.02577303 65.36256856 262.47924805 65.38525391 C267.74417677 65.40701737 273.00904519 65.41895106 278.27401543 65.42412949 C280.28061306 65.42781894 282.28720747 65.43502351 284.29377937 65.44583511 C287.10876673 65.46039649 289.92350631 65.46235099 292.73852539 65.46142578 C293.9771508 65.47221161 293.9771508 65.47221161 295.24079895 65.48321533 C300.73624108 65.46372795 306.56781025 65.38506176 310.79492188 61.46459961 C313.0245912 56.91003135 312.39799652 51.76755213 312.38671875 46.796875 C312.41507813 45.66443359 312.4434375 44.53199219 312.47265625 43.36523438 C312.5526007 36.738282 312.5526007 36.738282 309.54296875 31.01171875 C304.80577182 27.84197669 300.51022197 28.09782034 295.0090332 28.12084961 C294.10151306 28.12070358 293.19399292 28.12055756 292.25897217 28.1204071 C289.25595723 28.12110439 286.25300412 28.12888824 283.25 28.13671875 C281.16920506 28.13858358 279.08840967 28.14000718 277.00761414 28.14100647 C271.52821645 28.14482651 266.04884523 28.15465245 260.56945801 28.16571045 C254.97925169 28.17593557 249.3890411 28.18050645 243.79882812 28.18554688 C232.8281115 28.19627515 221.85742146 28.21386783 210.88671875 28.234375 Z M8.88671875 34.234375 C8.42821533 35.06573975 7.96971191 35.89710449 7.49731445 36.75366211 C5.77349544 39.87922725 4.04949318 43.00469128 2.32543945 46.13012695 C1.58352856 47.47515206 0.84166539 48.82020349 0.09985352 50.1652832 C-0.62082898 51.47203657 -1.34162259 52.77872866 -2.06253052 54.08535767 C-2.76785918 55.36418751 -3.47267731 56.64329908 -4.17697144 57.92269897 C-6.51726193 62.17038378 -8.89318891 66.39626462 -11.31176758 70.59985352 C-12.26004131 72.23025135 -12.26004131 72.23025135 -12.11328125 74.234375 C2.07671875 74.234375 16.26671875 74.234375 30.88671875 74.234375 C23.76596668 59.98100241 23.76596668 59.98100241 16.51171875 45.796875 C15.73248047 44.27223633 15.73248047 44.27223633 14.9375 42.71679688 C14.43863281 41.75451172 13.93976563 40.79222656 13.42578125 39.80078125 C12.98443848 38.94427979 12.5430957 38.08777832 12.08837891 37.20532227 C11.03682898 35.08823064 11.03682898 35.08823064 8.88671875 34.234375 Z M210.88671875 92.234375 C210.88671875 105.764375 210.88671875 119.294375 210.88671875 133.234375 C226.10546139 133.29260488 226.10546139 133.29260488 241.32421875 133.33203125 C247.53681887 133.34395879 253.7493597 133.35802684 259.96191406 133.38525391 C264.97398654 133.40708078 269.98599537 133.41896431 274.99811172 133.42412949 C276.9045423 133.42780763 278.81096962 133.43498987 280.71737289 133.44583511 C296.15035471 134.25050381 296.15035471 134.25050381 310.38671875 129.609375 C315.37157923 121.71667923 314.99441572 110.54569535 313.13671875 101.671875 C311.81414126 98.03478691 310.81442784 96.67383946 307.88671875 94.234375 C298.12741666 90.78077351 286.33857501 91.97918035 276.12109375 92.0390625 C274.23252514 92.04280014 272.34395456 92.04564356 270.4553833 92.04763794 C265.5235239 92.0552153 260.59178533 92.07481203 255.65997314 92.0970459 C249.72180172 92.12126229 243.78358953 92.13031343 237.84538269 92.14195251 C228.85907776 92.16124071 219.8730371 92.19960421 210.88671875 92.234375 Z " fill="#153D6A" transform="translate(293.11328125,2.765625)"/>
<path d="M0 0 C0.80192276 -0.06123047 1.60384552 -0.12246094 2.43006897 -0.18554688 C25.56417224 -1.6274489 25.56417224 -1.6274489 32.78955078 3.15625 C37.51886919 8.51849231 39.92193311 15.01442367 42.41552734 21.63623047 C44.74248985 27.32736445 47.87879763 32.49229059 51.01983643 37.76434326 C52.747002 40.68427788 54.41299775 43.63862935 56.0859375 46.58984375 C58.48361757 50.79289281 60.89963756 54.98393973 63.34375 59.16015625 C63.86235596 60.04727295 64.38096191 60.93438965 64.9152832 61.84838867 C65.86968696 63.47706673 66.82764754 65.10366771 67.78979492 66.7277832 C70.88671875 72.01481681 70.88671875 72.01481681 70.88671875 74.234375 C72.13571457 74.23215439 73.38471039 74.22993378 74.67155457 74.22764587 C86.48456844 74.20730927 98.29757873 74.19235238 110.11060619 74.18256283 C116.18271303 74.17736063 122.25480564 74.1703117 128.3269043 74.15893555 C134.19485424 74.14801159 140.06279056 74.14207814 145.93074989 74.13949776 C148.16125007 74.13766056 150.39174956 74.13407321 152.62224388 74.12864494 C175.05045913 74.0762695 175.05045913 74.0762695 185.88671875 75.234375 C183.12314292 76.69696508 180.44751839 77.76338967 177.45019531 78.64672852 C176.55749939 78.90993393 175.66480347 79.17313934 174.74505615 79.44432068 C173.76571106 79.72695267 172.78636597 80.00958466 171.77734375 80.30078125 C170.7333844 80.60335342 169.68942505 80.9059256 168.61383057 81.21766663 C155.17440462 85.0675845 141.63792873 88.55114142 128.09765625 92.02563477 C124.32611098 92.99355346 120.556697 93.96951931 116.78774643 94.94748592 C113.85128564 95.7083838 110.91368175 96.46478803 107.97571564 97.21985054 C106.58309196 97.57840354 105.19084712 97.93843152 103.7990036 98.30000114 C101.87338387 98.79960633 99.94600586 99.29241982 98.01855469 99.78491211 C96.92734314 100.06580185 95.83613159 100.34669159 94.71185303 100.63609314 C91.88671875 101.234375 91.88671875 101.234375 87.88671875 101.234375 C95.73648615 115.86170393 103.91633174 130.2635078 112.32714844 144.57470703 C114.4901329 148.2634285 116.63360915 151.96294022 118.76171875 155.671875 C119.37789062 156.74308594 119.9940625 157.81429687 120.62890625 158.91796875 C121.88671875 161.234375 121.88671875 161.234375 121.88671875 162.234375 C107.36671875 162.234375 92.84671875 162.234375 77.88671875 162.234375 C70.57421875 148.484375 70.57421875 148.484375 68.34643555 144.29003906 C62.63017456 133.54768868 56.77145036 122.88520266 50.88671875 112.234375 C42.34389003 114.35471387 33.80248401 116.48074061 25.26171875 118.609375 C23.36274841 119.08241058 23.36274841 119.08241058 21.42541504 119.56500244 C3.5465507 124.02237712 -14.30266326 128.57159856 -32.08837891 133.38818359 C-32.81785736 133.58383911 -33.54733582 133.77949463 -34.29891968 133.9810791 C-36.22015176 134.49647455 -38.13992993 135.01728159 -40.05957031 135.53857422 C-43.11328125 136.234375 -43.11328125 136.234375 -47.11328125 136.234375 C-47.32726562 137.01039063 -47.54125 137.78640625 -47.76171875 138.5859375 C-49.599951 143.54810201 -52.15042291 148.00432196 -54.73828125 152.609375 C-56.51203125 155.785625 -58.28578125 158.961875 -60.11328125 162.234375 C-72.98328125 162.234375 -85.85328125 162.234375 -99.11328125 162.234375 C-95.04108133 154.08997516 -91.05384985 146.13274231 -86.48828125 138.296875 C-85.43824251 136.47688523 -84.38878359 134.65656084 -83.33984375 132.8359375 C-82.80649414 131.91200195 -82.27314453 130.98806641 -81.72363281 130.03613281 C-79.07624751 125.43009981 -76.47103327 120.80042392 -73.86328125 116.171875 C-68.66280015 106.95166036 -63.41447267 97.75931521 -58.15301514 88.57382202 C-53.3804416 80.23883781 -48.66293404 71.87476055 -43.98828125 63.484375 C-38.85979508 54.27956763 -33.58921318 45.16770225 -28.24633789 36.0859375 C-23.63410562 28.21174529 -19.23117354 20.23543516 -14.93115234 12.18676758 C-14.4717627 11.33107178 -14.01237305 10.47537598 -13.5390625 9.59375 C-13.14114502 8.84577148 -12.74322754 8.09779297 -12.33325195 7.32714844 C-11.72936646 6.29122559 -11.72936646 6.29122559 -11.11328125 5.234375 C-10.73558594 4.50992187 -10.35789062 3.78546875 -9.96875 3.0390625 C-7.1014299 0.25021642 -3.81665574 0.2758626 0 0 Z M8.88671875 34.234375 C8.42821533 35.06573975 7.96971191 35.89710449 7.49731445 36.75366211 C5.77349544 39.87922725 4.04949318 43.00469128 2.32543945 46.13012695 C1.58352856 47.47515206 0.84166539 48.82020349 0.09985352 50.1652832 C-0.62082898 51.47203657 -1.34162259 52.77872866 -2.06253052 54.08535767 C-2.76785918 55.36418751 -3.47267731 56.64329908 -4.17697144 57.92269897 C-6.51726193 62.17038378 -8.89318891 66.39626462 -11.31176758 70.59985352 C-12.26004131 72.23025135 -12.26004131 72.23025135 -12.11328125 74.234375 C2.07671875 74.234375 16.26671875 74.234375 30.88671875 74.234375 C23.76596668 59.98100241 23.76596668 59.98100241 16.51171875 45.796875 C15.73248047 44.27223633 15.73248047 44.27223633 14.9375 42.71679688 C14.43863281 41.75451172 13.93976563 40.79222656 13.42578125 39.80078125 C12.98443848 38.94427979 12.5430957 38.08777832 12.08837891 37.20532227 C11.03682898 35.08823064 11.03682898 35.08823064 8.88671875 34.234375 Z " fill="#17BCEE" transform="translate(293.11328125,2.765625)"/>
<path d="M0 0 C12.87 0 25.74 0 39 0 C39.04526636 16.59499484 39.08205846 33.18993643 39.10362434 49.78497601 C39.11390695 57.49152027 39.12790912 65.19802326 39.15087891 72.90454102 C39.17090565 79.62689376 39.18373831 86.3492166 39.18817699 93.07159835 C39.19076876 96.62618169 39.19679652 100.18067948 39.21146011 103.73523521 C39.22775326 107.71765197 39.22797379 111.69992301 39.22705078 115.68237305 C39.23424133 116.84187973 39.24143188 118.00138641 39.24884033 119.19602966 C39.2210578 130.3450692 39.14677365 143.88350633 31.46484375 152.77734375 C23.53056552 160.16941618 13.91106789 161.14808703 3.51904297 161.16113281 C2.57037857 161.16609772 1.62171417 161.17106262 0.64430237 161.17617798 C-2.48974336 161.19076457 -5.62373842 161.19759678 -8.7578125 161.203125 C-10.94391887 161.20888056 -13.13002523 161.21463824 -15.31613159 161.22039795 C-19.90086095 161.23089884 -24.48557282 161.23674707 -29.0703125 161.24023438 C-34.92418539 161.2457086 -40.77782447 161.26971772 -46.63162422 161.29820633 C-51.14943093 161.31690065 -55.66718216 161.32204198 -60.18502426 161.32357025 C-62.34182891 161.32658339 -64.4986329 161.3345663 -66.65539932 161.34775543 C-93.95258921 161.5027309 -93.95258921 161.5027309 -103 154 C-108.84055803 147.82569579 -111.13556684 140.37983121 -111.11352539 132.02612305 C-111.11344986 131.06550461 -111.11337433 130.10488617 -111.11329651 129.11515808 C-111.10813522 128.0910231 -111.10297394 127.06688812 -111.09765625 126.01171875 C-111.0962413 124.95338333 -111.09482635 123.89504791 -111.09336853 122.80464172 C-111.08778159 119.43223211 -111.07523144 116.05988946 -111.0625 112.6875 C-111.05748331 110.39778742 -111.0529207 108.10807379 -111.04882812 105.81835938 C-111.03781643 100.21221683 -111.02109126 94.6061132 -111 89 C-103.0059545 87.11338936 -95.00779393 85.34091971 -86.9375 83.8125 C-86.02806641 83.63525391 -85.11863281 83.45800781 -84.18164062 83.27539062 C-83.30572266 83.10845703 -82.42980469 82.94152344 -81.52734375 82.76953125 C-80.75124756 82.62104736 -79.97515137 82.47256348 -79.17553711 82.31958008 C-77 82 -77 82 -73 82 C-73 97.84 -73 113.68 -73 130 C-48.91 130 -24.82 130 0 130 C0 87.1 0 44.2 0 0 Z " fill="#153D6A" transform="translate(117,4)"/>
<path d="M0 0 C12.54 0 25.08 0 38 0 C38 42.9 38 85.8 38 130 C77.93 130 117.86 130 159 130 C159 140.23 159 150.46 159 161 C106.53 161 54.06 161 0 161 C0 107.87 0 54.74 0 0 Z " fill="#153D6A" transform="translate(834,4)"/>
<path d="M0 0 C0.80192276 -0.06123047 1.60384552 -0.12246094 2.43006897 -0.18554688 C25.56417224 -1.6274489 25.56417224 -1.6274489 32.78955078 3.15625 C37.52073393 8.52060661 39.92512929 15.02063084 42.41992188 21.64501953 C44.72894946 27.29537298 47.84190503 32.41820411 50.96270752 37.65036011 C52.68714811 40.56250451 54.3506616 43.50890623 56.01953125 46.453125 C58.52685086 50.85377791 61.04194528 55.24978321 63.56640625 59.640625 C64.12956543 60.62135986 64.69272461 61.60209473 65.27294922 62.61254883 C66.3250265 64.44405463 67.37866282 66.27466602 68.43408203 68.10424805 C68.89282715 68.90386963 69.35157227 69.70349121 69.82421875 70.52734375 C70.22511719 71.2236792 70.62601563 71.92001465 71.0390625 72.63745117 C71.88671875 74.234375 71.88671875 74.234375 71.88671875 75.234375 C66.30023328 75.45745309 60.71635524 75.62042856 55.12646484 75.72875977 C53.22691688 75.77392543 51.32768021 75.83527669 49.42919922 75.91333008 C33.92481353 76.53464255 33.92481353 76.53464255 29.56884766 73.75561523 C27.88190305 71.33792971 26.94191663 68.98971383 25.88671875 66.234375 C24.92492293 64.34083331 23.91225876 62.47904568 22.89932251 60.6124115 C21.04091152 57.16438461 19.28546814 53.66396903 17.51171875 50.171875 C16.76873233 48.71914359 16.02524644 47.26666752 15.28125 45.81445312 C13.47730542 42.2906755 11.68013993 38.76351931 9.88671875 35.234375 C5.83546766 41.528016 2.27235501 48.0019258 -1.23828125 54.609375 C-5.10527203 61.82855761 -9.0560931 68.93283102 -13.42578125 75.859375 C-20.31876586 86.83680598 -26.20407606 98.37645343 -32.24674988 109.83404541 C-35.13367357 115.29754571 -38.10898714 120.70956996 -41.11328125 126.109375 C-44.99576964 133.10327517 -48.65937395 140.17276295 -52.1640625 147.36328125 C-54.69193057 152.38355631 -57.42175405 157.29990846 -60.11328125 162.234375 C-72.98328125 162.234375 -85.85328125 162.234375 -99.11328125 162.234375 C-95.04108133 154.08997516 -91.05384985 146.13274231 -86.48828125 138.296875 C-85.43824251 136.47688523 -84.38878359 134.65656084 -83.33984375 132.8359375 C-82.80649414 131.91200195 -82.27314453 130.98806641 -81.72363281 130.03613281 C-79.07624751 125.43009981 -76.47103327 120.80042392 -73.86328125 116.171875 C-68.66280015 106.95166036 -63.41447267 97.75931521 -58.15301514 88.57382202 C-53.3804416 80.23883781 -48.66293404 71.87476055 -43.98828125 63.484375 C-38.85979508 54.27956763 -33.58921318 45.16770225 -28.24633789 36.0859375 C-23.63410562 28.21174529 -19.23117354 20.23543516 -14.93115234 12.18676758 C-14.4717627 11.33107178 -14.01237305 10.47537598 -13.5390625 9.59375 C-13.14114502 8.84577148 -12.74322754 8.09779297 -12.33325195 7.32714844 C-11.72936646 6.29122559 -11.72936646 6.29122559 -11.11328125 5.234375 C-10.73558594 4.50992187 -10.35789062 3.78546875 -9.96875 3.0390625 C-7.1014299 0.25021642 -3.81665574 0.2758626 0 0 Z " fill="#153D6A" transform="translate(293.11328125,2.765625)"/>
<path d="M0 0 C12.54 0 25.08 0 38 0 C38 53.13 38 106.26 38 161 C25.46 161 12.92 161 0 161 C0 107.87 0 54.74 0 0 Z " fill="#153D6A" transform="translate(714,4)"/>
<path d="M0 0 C1.59887695 1.75878906 1.59887695 1.75878906 2.98828125 4.265625 C3.52211426 5.20535156 4.05594727 6.14507812 4.60595703 7.11328125 C5.16911621 8.14839844 5.73227539 9.18351562 6.3125 10.25 C6.9091748 11.31089844 7.50584961 12.37179688 8.12060547 13.46484375 C9.40969666 15.757449 10.69189748 18.05282419 11.96630859 20.35351562 C14.05098857 24.10626881 16.18679333 27.82849054 18.33203125 31.546875 C19.05498531 32.8017269 19.77788607 34.0566095 20.50073242 35.31152344 C21.03034073 36.23088684 21.03034073 36.23088684 21.57064819 37.16882324 C23.25212724 40.08918183 24.92971414 43.01160695 26.6015625 45.9375 C27.16182129 46.91589844 27.72208008 47.89429688 28.29931641 48.90234375 C30.30075342 52.54779779 32.14015671 56.28031342 34 60 C19.48 60 4.96 60 -10 60 C-12.413125 55.4625 -14.82625 50.925 -17.3125 46.25 C-22.74723322 36.03561549 -28.21835896 25.84686947 -33.8996582 15.76660156 C-37 10.21285154 -37 10.21285154 -37 8 C-32.53617073 6.8530624 -28.0704359 5.71398419 -23.6027832 4.58203125 C-22.084335 4.19614696 -20.56642223 3.80814913 -19.04907227 3.41796875 C-16.86352877 2.85636072 -14.67615007 2.30247013 -12.48828125 1.75 C-11.81412674 1.57500977 -11.13997223 1.40001953 -10.44538879 1.21972656 C-3.32019849 -0.56262166 -3.32019849 -0.56262166 0 0 Z " fill="#153D6A" transform="translate(381,105)"/>
</svg>
